# xmcd
#
# Track frame offsets:
#	150
#	13030
#	26885
#	41582
#	55977
#	69907
#	83900
#	98085
#	112270
#	126120
#	141005
#	155567
#	170490
#	184435
#	198607
#	212740
#	237522
#	250520
#
# Disc length: 3500 seconds
#
# Revision: 0
# Processed by: cddbd v1.4PL0 Copyright (c) Steve Scherf et al.
# Submitted via: EasyCDDAExtractor 4.6.9.1
#
DISCID=060daa12
DTITLE=Rev. Blind Gary Davis - Complete Recorded Works
DYEAR=1935
DGENRE=Blues
TTITLE0=I'm Throwin' Up My Hands
TTITLE1=Cross And Evil Woman Blues
TTITLE2=I Am The True Vine
TTITLE3=I Am The Light Of The World
TTITLE4=O Lord, Search My Heart
TTITLE5=I Saw The Light
TTITLE6=You Can Go Home
TTITLE7=Twelve Gates To The City
TTITLE8=Have More Faith In Jesus
TTITLE9=You Got To Go Down
TTITLE10=I Belong To The Band - Hallelujah
TTITLE11=The Great Change In Me
TTITLE12=Lord, I Wish I Could See
TTITLE13=Lord, Stand By Me
TTITLE14=The Angel's Message To Me
TTITLE15=Civil War March
TTITLE16=I Cannot Bear My Burden By Myself
TTITLE17=I'm Gonna Meet You At The Station
EXTD=
EXTT0=
EXTT1=
EXTT2=
EXTT3=
EXTT4=
EXTT5=
EXTT6=
EXTT7=
EXTT8=
EXTT9=
EXTT10=
EXTT11=
EXTT12=
EXTT13=
EXTT14=
EXTT15=
EXTT16=
EXTT17=
PLAYORDER=
